<svg version="1" xmlns="http://www.w3.org/2000/svg" width="1066.667" height="1066.667" viewBox="0 0 800.000000 800.000000"><path d="M0 400v400h184c133.8 0 184-.3 184-1.1 0-.6-1.2-2-2.6-3.1-1.4-1.1-2.3-2.7-2-3.4.4-.9-.2-1.4-1.5-1.4-3.7 0-10.9-3.9-10.3-5.5.4-1 0-1.5-1.2-1.5-.9 0-2.5-.6-3.3-1.3-.9-.8-3.6-1.9-6.1-2.6-3.1-.9-5.8-2.7-8.7-5.9-2.4-2.5-4.3-5-4.3-5.5s-1.6-.7-3.6-.4c-2.8.5-4.4 0-7.6-2-3.1-2.1-5.2-2.7-10.1-2.8-6.6-.1-9.2-1-8.1-2.7.5-.7-.1-.9-1.6-.5-3.6.9-11-.4-11-1.9 0-1.3-1.2-1.8-3.3-1.5-.4.1-2.5-1-4.7-2.4-4.2-2.6-6-3.1-6-1.6 0 1-22.7.8-23.7-.3-.3-.3 1.4-.6 3.8-.6l4.4-.1-3-1.3c-3.1-1.3-8.3-2.4-14.7-3.1-2-.3-5.4-1.1-7.4-2-2-.8-5.4-1.5-7.6-1.5-2.1 0-4.9-.6-6.1-1.4-1.2-.8-4.2-1.7-6.7-2.1-2.5-.4-6.3-1.6-8.4-2.6-2.2-1.1-5.2-1.9-6.8-1.9-1.5 0-4.2-.9-6-2-1.8-1.1-4.1-2-5.1-2s-3.2-.8-5-1.7l-3.2-1.7 2.5-.6 2.5-.6-2.7-2.6c-1.6-1.4-2.8-3-2.8-3.7 0-.6-.7-1.1-1.6-1.1-1.4 0-1.5-1-.9-8 .5-5.6.4-8-.4-8-.6 0-1.1-1.7-1.1-3.9 0-4.4-.8-7.1-2.1-7.1-.5 0-.9.7-.9 1.5s-.6 1.5-1.4 1.5c-1.4 0-2.5-11.6-3.2-31.9-.3-9.2-.4-9.5-3-10.9-2.6-1.3-2.9-1.3-4.5.7-.9 1.1-2.4 2.1-3.3 2.1-.9 0-1.6.6-1.6 1.4 0 1-2.2 1.6-8 2.1-6.9.6-8 1-8 2.6 0 1.5-.7 1.9-4 1.9-4 0-4 0-4-3.9v-3.9l-4.6-.4c-5.3-.4-5.3-.4-8.3 4.4-1.6 2.6-1.9 3.8-1 3.8.9 0 .6.7-.6 1.9-2.5 2.4-17.5 4.2-17.5 2.1 0-1-2-1.1-8.4-.6-9.8.8-9.4 1.3-8.5-10.5.4-5.3 1.1-8.2 2.2-9.4 1.7-1.6 2.1-2.8 1.8-5.3-.1-.7 1-3.5 2.4-6.3s2.5-6.7 2.5-8.8c0-2 .4-4.1.8-4.6.5-.6 1.5-4.3 2.2-8.4.8-4 1.9-7.5 2.7-7.8.7-.3 1.3-1 1.3-1.5 0-.6.6-2.4 1.4-4.1.8-1.8 1.9-4.8 2.5-6.8 1.2-3.9 6.5-9.9 8.7-9.9.8 0 1.4-.6 1.4-1.4 0-.8.8-2.1 1.8-2.8 2-1.5 5.2-6.2 5.2-7.7 0-.9 5.2-7.1 11.3-13.4 1.5-1.6 2.7-3.3 2.7-3.8s.8-.9 1.8-1c.9 0 1.2-.3.6-.5-1.6-.7 2.6-9 5.4-10.5 1.3-.7 4-1.2 6-1.1 5.1.2 20.9-1.6 25.4-3 2.1-.6 3.8-1.7 3.8-2.5 0-.7.7-1.6 1.5-1.9.8-.4 1.5-1.3 1.5-2.1s.5-1.1 1-.8c.6.3 1 .1 1-.4 0-.6.7-1.1 1.5-1.1s1.7-1.1 2.1-2.5c.3-1.4 1.1-2.5 1.6-2.5.6 0 .7-1.1.4-2.5-.4-1.4-.3-2.4.1-2.3 2.3.4 6.3-2.4 6.9-4.9.4-1.5 1.5-3.6 2.5-4.7 1-1 1.6-2.3 1.3-2.7-.6-1 .9-1.9 3.9-2.1 2.1-.2 2.6-1 3.6-5.5.9-3.8 1.6-5 2.7-4.6.8.3 1.4-.1 1.4-.8 0-.8 1.9-3.5 4.3-6 2.3-2.6 6-8.2 8.2-12.5 2.2-4.4 4.6-8.5 5.3-9.2.6-.7 1.2-1.8 1.2-2.3 0-1.8 7.5-11.2 16.6-20.8 5-5.3 9.7-10.6 10.3-11.9.7-1.2 1.6-2 2-1.7.5.2 1.2-1.1 1.5-3 .4-1.9 1.1-3.5 1.6-3.5 1.1 0 4-5.7 4-7.9 0-.9.9-2.2 2-2.9 1.1-.7 2-2.3 2-3.6 0-2.4 5.8-9.6 7.7-9.6 1.6 0 3.5-4.5 3.6-8.4.1-4.5-1.8-6.1-4.7-4-2.7 1.8-3.3 1.8-4.5-.5-1.3-2.4-5-34.7-5.2-45.8-.1-4.5-.5-10.5-1-13.5-2.6-16.9-7.1-71.4-6.8-82.6.2-8.1 1.8-12.2 4.8-12.2 1.4 0 1.4-.2.1-1-1.5-.9-1.3-1.1 1.2-1.4.7 0 1.4-1 1.6-2.1.2-1.1 1-2.7 1.7-3.5 1.3-1.6 2.6-4.6 3.1-7 .3-1.3 1.6-4.5 3.5-8.2.5-1 .9-2.4.9-3.3 0-.8.6-2.9 1.4-4.7 2.1-4.9 3.4-10.4 4.7-19.8 1.6-12.2 2.7-17.9 4.3-21.4.8-1.7 1.6-3.7 1.8-4.5.2-.7 3.5-2.2 7.3-3.1 3.9-1 9.3-2.8 12-4.1 2.8-1.2 6.1-2.4 7.5-2.6 1.4-.2 5-1.5 8.1-2.9 4.8-2.2 5.9-3.3 6.9-6.4.7-2.1 1-5.3.7-7.1-.7-4.6-3.6-12.2-4.9-13.1-.8-.4-.7-1.3.4-3 .8-1.2 2-4 2.7-6.1.7-2 1.9-3.7 2.7-3.7.8 0 1.4-.4 1.4-.8s2.7-.9 6.1-1c3.6-.2 5.8.1 5.5.7-.3.5 1.8 1.1 4.6 1.4 23.9 2.4 32.4 4 36 7.2 1.5 1.2 4.7 2 10.2 2.6 4.5.4 10.2 1 12.9 1.4 3.2.5 4.7.4 4.7-.4 0-.6.5-1.1 1.1-1.1.5 0 .7.4.4 1-.4.6.8 1 2.8 1 2.1 0 4.1.7 5.2 2 1 1.1 2.9 2 4.2 2 1.2 0 3.2.9 4.3 2 1.1 1.1 2.3 2 2.7 2 .4 0 3.8 1.6 7.6 3.6 3.9 2 9 3.9 11.5 4.3 4 .5 4.7 1.1 6.5 4.5l2.1 3.9 2.3-2.9c1.2-1.6 2.3-3.8 2.3-4.8 0-2.5 4.4-9.9 9.4-16 4.4-5.2 15-11.1 18-10 .9.3 2.1 2.4 2.7 4.5 1.2 3.8 2.9 5.3 2.9 2.5 0-1 1.6-1.5 5.4-1.8 4.4-.2 5.3 0 4.8 1.2-.5 1.3-.3 1.3 1.1.1 1.1-.8 1.5-2.1 1.2-3.2-.4-1.1-.1-1.9.5-1.9.7 0 1-.8.7-2-.3-1.3 0-2 1-2 .8 0 1.2-.4.9-.8-.3-.5-2.7-1-5.3-1.1-8.2-.3-8.5 1.2 5.9-26.1 6.3-11.8 8.3-15.9 10.2-20.5 1-2.2 4.7-7.3 8.4-11.2 6.3-6.6 7-7.1 10.8-7.1 3.9.1 4.2.3 4.7 3.2.7 3.7 6.3 14.1 11.8 21.6 7.6 10.5 9.9 17.6 6.7 20.8-.7.7-1.8 3-2.4 5-.8 2.8-1.5 3.7-3.1 3.5-1.3-.2-2.4.6-3.1 2.2-.7 1.4-1.6 2.5-2.2 2.5-.5 0-1 .9-1 1.9 0 1.1-2.7 4.8-6 8.3-3.3 3.4-6 6.6-6 7 0 .9-5.6 8.6-10.8 14.7-2 2.4-4 5.4-4.3 6.6-.7 2.5-3.9 7.2-8.1 12-3.8 4.3-7.9 10.4-9.5 14.3-1.1 2.6-1.8 3.2-3.3 2.7-1.5-.5-2-.2-2 1.3 0 1-1.8 4.3-4 7.2-2.2 2.9-4 6.2-4 7.1 0 1.1-1.4 2.5-3.5 3.5-2.4 1.1-3.5 2.3-3.5 3.8 0 1.4-1.2 2.8-3.7 4.1-2.5 1.4-3.7 2.8-3.8 4.4-.1 1.3-1 3-2.1 3.7-2.3 1.6-2.7 2-5.7 5.9-3.7 4.8-5.7 9.5-5.1 12.1.5 2 .1 2.6-3 3.9-2 .8-3.6 2.2-3.6 3 0 2.6-3.3 8.5-4.9 8.5-1.9 0-8.6 7.1-8.2 8.8.3 1.7-3.1 7.1-6.3 10.1-1.4 1.4-2.6 3.2-2.6 4.2 0 1.8-13.1 19.9-16.9 23.3-1.2 1.1-2.1 2.4-2.1 2.9 0 1.1-6.2 8.2-17 19.4-3.5 3.8-7.1 8-8 9.5-2.2 3.8-10.1 15.1-11.4 16.3-.6.5-2.1 3.1-3.4 5.7-1.2 2.6-2.6 4.8-3.1 5-.4.2-2.7 3.6-5 7.6-2.3 3.9-4.6 7.2-5.2 7.2-.5 0-1.4 1-1.9 2.2-.5 1.3-1.8 3.6-3 5.3-1.1 1.6-2.9 5.8-4 9.3-2.3 7.5-3.8 10.4-4.9 9.7-.5-.2-2.6 1.6-4.7 4.1-2.2 2.5-4.9 5.7-6.1 7-1.2 1.3-3.4 4.1-4.9 6.1-1.6 2.1-4.3 5.2-6.1 6.9-1.8 1.8-3.3 3.9-3.3 4.8 0 .9-.7 1.6-1.5 1.6s-1.5.8-1.5 1.8-1.3 2.8-3 4c-1.6 1.2-3.7 3.7-4.6 5.5-.9 1.7-2 3.4-2.3 3.7-.3.3-1.2 1.4-1.9 2.5s-2.2 3.5-3.3 5.2c-1.2 1.8-2.5 3.3-2.9 3.3-.5 0-1.4 1.7-2.1 3.7-.6 2.1-1.8 4.5-2.6 5.3-4 4.4-6.3 7.7-6.3 9.3 0 1-.7 2-1.5 2.3-.8.4-1.5 1.2-1.5 2 0 .7-1.8 2.3-4.1 3.4-3.2 1.7-3.9 2.5-3.4 4 .4 1.3-.2 2.8-1.9 4.5-1.3 1.3-2.7 3.3-3.1 4.4-.3 1-1.4 2.1-2.4 2.4-1 .2-3.3 2.7-5.1 5.6-1.8 2.8-3.7 5.1-4.2 5.1-.4 0-.7.4-.5.9.5 1.9-5 9.1-8 10.6-1.8.9-3.3 2.3-3.3 3.1 0 2.5-3.1 6.4-5.2 6.4-1 0-3.1 1.4-4.6 3.1-1.5 1.7-4 4.5-5.7 6.3-3 3.3-6.5 9-6.5 10.7 0 1.8-4.3 5.7-5.6 5.2-1.3-.5-1.9.8-1.5 3.1.1.5-1 2.6-2.4 4.6-2.2 3.2-2.5 4.3-1.8 7.1.8 3 1.2 3.3 5.6 3.6 4 .4 5 .1 6.9-2.1 1.3-1.4 3.2-2.7 4.3-2.9 3.1-.5 6.5-3 6.5-4.9 0-1.9 3.7-4.2 8.5-5.2 4.4-1 20.5-16.7 21-20.6.4-2.6 5.9-9.2 6.9-8.3.3.3.9-.3 1.3-1.3 1.2-3.1 3.9-5.5 5.6-4.8 1.8.6 5-3.6 5.2-6.9.1-1.2.7-2.3 1.3-2.5.7-.2 1.2-1.5 1.2-2.9 0-1.5 1.4-4.1 3.5-6.4 1.9-2.1 3.7-4.9 4.1-6.2.3-1.4 1.6-3 2.9-3.7 2.3-1.2 3.2-3.4 4-10.1.3-1.7 1.2-4.2 2-5.6 1.8-2.7 1.6-6.9-.3-6.5-.7.1-2.2-.3-3.3-.9-2.1-1.1-2.1-1.1.9-4.2 1.6-1.8 3.2-4.1 3.6-5.2.3-1.1 1.6-3.1 2.8-4.5 2.8-3.1 7.8-10.7 7.8-11.8 0-1.4 3.6-4.3 4.4-3.5.4.4 1.1.1 1.5-.6.5-.7 3-1.6 5.5-1.8 3.7-.5 5-1.1 6-3.1.7-1.4 2.8-3 4.6-3.6 2-.7 4-2.3 5-4.1.9-1.7 2.6-3.1 3.9-3.3 2.2-.3 8.6-8.1 8.6-10.5 0-.6 5.1-6.2 11.2-12.5 6.2-6.3 11.3-11.9 11.3-12.4s1-2.4 2.3-4.1c2.7-3.8 4.1-6.2 6.3-10.2.9-1.7 2.3-3.7 3-4.6 1.7-1.9 18.4-31 18.4-32 0-.4 1.6-2.6 3.5-4.9 1.9-2.3 3.5-4.5 3.5-4.9 0-.3 2.1-2.9 4.6-5.6 2.5-2.8 5.5-6.1 6.5-7.5 1.9-2.5 4.4-5.3 12.1-14 5.1-5.9 24.8-31.7 24.8-32.7 0-.4 1.5-2.2 3.2-3.8 1.7-1.7 3.8-4.6 4.7-6.5.9-1.9 3.3-6.1 5.4-9.2 2-3.1 3.7-6.6 3.7-7.6 0-1.1 2-4.7 4.5-8.1 2.5-3.4 4.5-6.5 4.5-6.9 0-.5 1.4-2.1 3.1-3.8 1.7-1.6 3.7-4.1 4.5-5.7 1.9-3.6 9.7-11.7 11.3-11.7.7 0 .9-.5.6-1-.4-.6 1.2-3.2 3.4-5.8 2.3-2.6 5.7-6.5 7.6-8.8 7.3-8.4 17.5-24.5 21.3-33.4 4.4-10.4 5.6-14.4 4.4-14.8-1.6-.5-.3-3.2 1.7-3.2 2.4-.1 8.4-5 12.3-10 1.8-2.4 3.8-4.4 4.3-4.4 1.2-.1.7 7.5-.7 9.1-1.5 1.8-7.8 12.4-7.8 13.2 0 .8-5.8 12.1-6.9 13.5-.5.6-1.2 2.2-1.6 3.6-.4 1.4-2.1 5.2-3.6 8.4-1.6 3.3-2.9 6.5-2.9 7.1 0 .7-1.3 3.2-3 5.6-1.6 2.4-3 5.2-3 6.3 0 1-1.6 3.4-3.6 5.2-1.9 1.9-3.3 3.8-2.9 4.4.8 1.4-.6 13.1-1.5 12.5-.9-.5-5 7.3-5 9.3 0 .7-.5 1.2-1.1 1.2-.5 0-.7.5-.3 1.1.3.6.1 1.5-.5 1.9-.7.4-1.4 1.9-1.5 3.4-.3 2.8-3.4 5.7-7.1 6.6-2.3.7-3 2.7-4.6 12.8-.6 4-1.6 7.8-2.3 8.5-2.1 2.1-3.6 5.4-3.6 8 0 2.5-2.8 5.7-4.9 5.7-1.8 0-5 4.1-5.1 6.4 0 2.5-9.8 11.9-11.6 11.2-1.9-.7-1.8-8.4.2-13.2l1.6-3.8-5.1 5.3c-2.8 2.9-5.1 5.6-5.1 6.1 0 .4-1.7 2.7-3.9 5.1-3.7 4.2-3.9 4.7-3.8 11.1.1 5.8-.4 7.7-3.5 14-2 4-4.5 9.5-5.5 12.1-1 2.8-3.7 6.7-6.1 9.1-3.9 3.8-4.4 4.9-4.7 9.5-.2 2.9-.9 5.8-1.4 6.5-.6.7-1.3 3.2-1.7 5.6-.8 5-7.6 20.1-9.9 22-.8.7-1.5 1.8-1.5 2.5 0 .6-2.9 2.7-6.5 4.5-3.6 1.8-6.5 3.9-6.5 4.7 0 2.5-4.7 6.3-7.8 6.3-1.7 0-3.2.6-3.6 1.5-.8 2.3-2.1 1.8-3.3-1.4-.9-2.5-1.6-2.9-3.8-2.7-5.2.6-6.9 4.5-8.1 19.1-1.2 13.3-2.6 20.3-4.1 21.4-1.3.8-5.7 10.2-5.8 12.4-.1.9-1.4 3-2.8 4.5-1.5 1.6-2.7 3.3-2.7 3.8 0 1.3-4.3 5.4-5.6 5.4-1.1 0-3.4 8.5-3.4 12.5 0 3.6-11.7 27.4-15.6 31.7-1.9 2.1-3.4 4.5-3.4 5.4 0 1-.7 1.4-2.2 1.2-1.7-.2-2.2.1-2 1.4.2 1.1-.3 1.8-1.3 1.8-.8 0-1.5.7-1.5 1.5s-1.8 2.7-4 4.1c-2.2 1.4-4.2 3.5-4.5 4.5-.4 1-2.5 2.8-4.8 3.9-4.9 2.3-7.3 3.8-9.9 6.2-1 1-2.4 1.8-3.1 1.8-1.8 0-4.7 3.2-4.7 5.2 0 .9-1.1 2.3-2.5 3.2-1.4.9-2.5 2.4-2.5 3.4s-1.1 3.3-2.5 5.2c-1.4 1.9-3.3 5.9-4.1 9-.9 3-2 6.3-2.5 7.2-.5 1-.9 2.7-.9 3.7 0 1.1-.4 2.2-.9 2.5-.5.4-2.1 3.6-3.5 7.4-1.4 3.7-4.2 8.4-6.1 10.4-1.9 2-3.5 4.2-3.5 4.8 0 .6-1.5 2.6-3.3 4.5-3.6 3.7-6.7 11.6-6.7 17 0 1.8-.7 3.8-1.5 4.5-.8.7-1.5 2.6-1.5 4.2 0 3.3-3.5 14.2-5.5 17.4-2.5 3.8-5.8 14.8-4.6 15.2.7.2.8 1.4.4 3-.6 2.6-.6 2.6 1.1.9 1.6-1.6 2.1-1.6 4-.4 1.8 1.2 3.9 1.2 14.6-.1 6.9-.9 12.8-1.9 13.1-2.4.3-.5 5.9-1.1 12.4-1.3l11.8-.5-.6 3.4c-1 5.9 0 7.6 4.4 7.6 3.1 0 4.8.8 8.8 4.2C345.5 666 352 669.8 358 670c2 0 2.2.2 1 1-1.3.8-1.3 1 .1 1 1 0 2 1.1 2.3 2.6.7 2.5.8 2.6 2.1.8.8-1.1 1.5-1.4 1.5-.8 0 1.3 7.7 6.4 9.6 6.4.9 0 1.2.5.9 1-.3.6.1 1 .9 1 .9 0 2.5 1.8 3.6 4 2 4 4.4 5.2 5.3 2.7.4-.7.8-.3 1.3 1.1.4 1.5 1.2 2.1 2.1 1.8.9-.4 1.7.1 2 1.4.4 1.4 1.4 2 3.4 2 1.6 0 3.9 1.1 5.5 2.5 1.5 1.4 3.4 2.5 4.3 2.5.9 0 2.9.7 4.5 1.5 1.5.8 3.9 1.5 5.2 1.5 1.8 0 2.4.6 2.4 2.1 0 1.8.5 2 4.5 1.8 3.6-.2 6 .5 12.2 3.7 4.3 2.1 7.9 4.2 8.1 4.6.2.4 1 .4 1.8.1 1-.4 1.4.2 1.4 2.1 0 2.9 1.6 3.5 2.3.8.3-1 .5-.6.6 1.1 0 1.6.5 2.6 1 2.3.5-.3 2.4-.1 4.2.6 2.5.9 3.4.9 3.7 0 .5-1.6 2.2-1.5 2.2.1 0 .8.9 2.2 2 3.2 1 .9 1.9 2 1.8 2.4 0 .3.1.9.2 1.3.1.5.3 1.4.4 2 0 .7 1 1.3 2.1 1.3 1.4 0 2 .6 1.9 2.2 0 1.6.7 2.4 2.8 2.8 1.5.4 2.8 1.1 2.8 1.6s.6.9 1.3.9c.8 0 2.2.9 3.1 1.9 1.3 1.5 1.4 2 .4 2.4-.9.4-.7.6.4.6 1.7.1 2.2.9 6.7 9.4 1.4 2.6 3.2 4.7 4.1 4.7.8 0 2.6 1.8 4 4 1.5 2.5 3.2 4 4.5 4 1.5 0 1.6.3.7.9-1.1.7-1 .9.3 1.5.9.3 1.3 1 1 1.6-.3.6.1 1.3.9 1.6.9.3 1.3 1 1 1.5-.3.5 0 .9.6.9s.9.4.6.9c-.3.5.1 1.2.9 1.5.8.3 1.5.9 1.4 1.3-.5 3 .2 5.2 1.6 4.7 1.8-.7 4.5 5 4.5 9.5 0 1.6.3 3.6.6 4.5.6 1.5 14.3 1.6 145 1.6H800V0h-94.2l.4 3c.3 2.3.1 2.9-.8 2.6-.8-.3-2 .1-2.7.9-1.2 1.2-1.7 1-3.5-1.2-1.1-1.4-1.8-3.2-1.5-3.9.4-1-.5-1.4-3.4-1.4-4.7 0-6.6 2.5-6.9 9-.1 2.5-.4 5.8-.7 7.5-.2 1.6-.5 4.1-.5 5.4-.3 3.8-1.3 1.8-1.7-3.3-.2-2.6-1.3-5.9-2.6-7.7-1.8-2.6-2-3.5-1-5.5 1.8-4.1 1.4-5.4-1.8-5.4-2.7 0-2.9.3-3.5 5-.4 2.8-.5 5.4-.2 5.9.3.4.8 3 1.1 5.7.4 2.7 1.8 6.9 3.2 9.4 3.4 5.8 3.1 5.7 4.8 3.4 1.3-1.7 1.4-1.5 1.5 2.9 0 3.6.4 4.9 1.8 5.3.9.3 2.4 1 3.2 1.5.8.5 2.5 1.3 3.7 1.8 1.1.6 2.9 2.4 3.9 4 1 1.7 2.4 3.1 3.1 3.1.7 0 1.3.4 1.3.9 0 .4 1.6 2.9 3.6 5.5 1.9 2.5 3.2 5.1 2.9 5.6-.3.5-2.1 1.7-4 2.6-3.2 1.5-3.4 1.5-5.4-.5-1.2-1.2-2.8-2.1-3.6-2.1-1.9 0-1.9-.4.1-4.5 1.1-2.5 2-3.2 3.5-2.8 1.2.4 1.9 0 1.9-.9 0-2.1-1.1-2.9-2.5-1.8-.9.8-1.4.4-1.9-1.3-.4-1.7-2.1-2.9-6.8-4.6-3.5-1.3-7.6-2.5-9.3-2.8-1.6-.3-4.3-1.5-6-2.8-3.2-2.3-10.1-4.5-12.3-3.7-1.6.5-1.5 3.2.4 7.7.8 2.1 1.3 4.4 1 5.1-.7 1.8-4.4 1.8-6.2-.1-3.1-3.1-9.2-.9-7.8 2.8.7 2.1-1.2 3-4.4 2.2l-2.7-.7 2.3-1.8c1.2-1 2.2-2.4 2.2-3 0-1-.3-1-1.4-.1-1.1.9-1.5.4-2-3.2-.4-2.4-.4-6.3 0-8.6.6-3.8.4-4.5-2.3-6.9-2.5-2.4-3.2-2.6-5.3-1.5-1.9.9-2.7.9-3.9 0-.8-.7-4.8-1.2-9.3-1.3-6.6-.1-8.2-.4-10.1-2.2-1.3-1.2-3.1-2.2-4-2.2-.9 0-1.7-.6-1.7-1.3-.1-3.4-2.4 3.5-2.9 8.7-.4 3.4-1.1 6.1-1.8 6.4-2 .6-1.8-11.4.1-12.1 1.2-.5 1.3-1.1.3-3.6-1.7-4.6-3.4-4.5-5.8.4-2.3 4.5-2.3 4.5-7.7 4.5-4.5 0-5.5-.3-5.9-2-.6-2.4-3.5-3.4-9-3.1-4 .2-4.3.1-4.3-2.3 0-1.4-1.4-4.1-3-5.9l-3-3.5 2.5-1.6c4.1-2.7 2.7-7-1.5-4.4-1.6 1-2.4 1-4 0-3.1-1.9-9.8-1.6-10.3.5-.4 1.7-.5 1.7-.6 0 0-.9-.5-1.7-1.1-1.7-1.3 0-1.3 4.7 0 5.5.6.3 1 .1 1-.5s1.1-.5 3 .5c1.6.8 3.6 1.5 4.5 1.5 2.6 0 1.7 4.3-1.5 7.3-5 4.7-3.6 9.1 1.9 6.2 4.7-2.4 6.1-2 6.1 1.9 0 1.9.7 4.1 1.5 5 .8.8 1.5 2.1 1.5 2.9 0 1.2.8 1.1 4-.6 2.3-1.3 4-2.9 4-4 0-2.5 1.3-2.1 3.8 1.3 2.7 3.6 2.9 6.2.5 5.8-1-.1-2.4.1-3 .5-.8.5-1.3.4-1.3-.2 0-.6-1.4-1.1-3.1-1.1-2.7 0-2.9.2-1.5 1.5.8.8 2.2 1.5 3 1.5 1.5 0 2.1 2.3 1.7 5.7-.1.7.5 2.8 1.3 4.8 1.6 3.9 4.5 4.7 5.3 1.5.3-1.1.9-1.7 1.4-1.5.4.3 1.5-.8 2.3-2.4 1.3-2.4 2.2-2.9 4.7-2.9 3.8.1 5.2 3 5 10.8 0 3 .2 6.3.5 7.2.3 1 3.5 3.2 7 4.9 3.6 1.8 7.9 4.7 9.6 6.5 2.2 2.3 4.3 3.4 7.3 3.9 6.4.9 10.8 6.8 5.3 7-1.6.1-2.8-.3-2.8-.7 0-.4-1.5-.8-3.4-.8-5.9 0-18.9-7-21.9-11.7-.4-.7-2.2-2-4-2.9-3.4-1.8-7.7-5.9-7.7-7.5 0-.5-1.1-.9-2.5-.9s-2.5-.4-2.5-.8c0-.5-1.1-1.4-2.4-2.2-1.6-.8-2.2-1.8-1.9-2.8.4-1 .2-1.3-.5-.8-.7.4-1.4-.3-1.8-1.9-.4-1.6-1.3-2.5-2.6-2.5-4 0-19.8-18.8-19.8-23.5 0-.8-.3-1.5-.7-1.5-1.5 0-6.2-10.6-6.8-15.3l-.6-4.7H0v400zM785.5 6.4c1.1.2 2.6.4 3.3.5 2.8.2.5 2.4-2.8 2.7-1.9.2-5.3.6-7.6.9-3 .5-4.3.3-5.4-1-3-3.6 2.4-5 12.5-3.1zM717.8 18c-.4 3.5-3.5 3.8-4.8.5-.7-1.9-.7-3.1.1-4.1 1.7-2.1 5 .5 4.7 3.6zM152 23.6c1.2 1.2 1.1 1.4-1.2 1.4-1.4 0-3 .6-3.6 1.3-.6.7-1.3 5.9-1.4 11.5-.2 7.7-.6 10.1-1.5 9.7-.7-.2-2-.2-2.9.2-1.2.5-1.3.7-.3 1.4.8.5 1.7.3 2.1-.4.5-.8.8-.7.8.5 0 .9.5 1.8 1.2 2 .8.3.4 1.2-.9 2.5s-2 2.9-1.6 4.1c.5 2.1-2 5.2-4.3 5.2-.9 0-2.3.7-3.1 1.6-2.6 2.6-16 .5-18.4-2.9-.3-.5-.4-1.9-.2-3.2.6-2.9-2.6-4.2-6.6-2.5-1.5.6-5.4 1-8.7.8-5.6-.3-5.9-.4-8.7-4.6-2.8-4.2-4.7-5.3-4.7-3 0 .7-1.3 2.7-2.8 4.5-2.6 3-2.9 3.1-8 2.4-5.2-.7-7.5-2.3-6.6-4.5.3-.7 1.5-1.3 2.8-1.4 1.3-.1 3.4-.6 4.7-1.1 2.1-.9 2.2-1 .4-1.1-1.9 0-1.8-.2.4-1.9 1.6-1.3 3.6-1.7 6.5-1.5 3 .3 5-.2 7.8-2.1 2.1-1.4 4.2-2.5 4.8-2.5.5 0 1-.4 1-.9 0-1.7 6.8-3.2 11.3-2.6 4.9.8 8.2-1.3 7.4-4.6-.4-1.5.1-1.9 2.3-1.9 2.8 0 4.9 1.5 3.2 2.2-1.6.6.9 7 2.9 7.5 1 .3 1.9.8 1.9 1.2 0 .4 1.4 1.5 3.1 2.5 2.6 1.5 3.5 1.6 5.4.6 3.8-2 4-4.2.6-7.2-3.7-3.3-4.4-6.1-1.6-6.6 2.6-.5 5.6-3.2 4.9-4.3-.3-.5-1.8-.9-3.4-.9-2.6 0-4.6-2.1-3.3-3.4 1.2-1.1 16.8.6 18.3 2zm17.5 2.4c11.7 3.3 24.6 7.5 27.7 9.1 2 1 4.4 1.9 5.3 1.9 1.5 0 4.8 1.3 15.5 6.4 8.8 4.2 13.5 7.2 21.1 14 1.5 1.3 4.4 2.9 6.5 3.6 2.2.7 4.4 1.6 4.9 2 1.1.9 5.4 1.4 10 1.2 2.1-.2 3.3-.9 4-2.4.6-1.2 3-3.2 5.5-4.5 3.7-1.8 6.1-2.2 13.7-2.3 7.3 0 9.4.3 10.1 1.5.4.9 4.1 2.6 8.2 3.9 4.2 1.4 7.7 3.1 8.3 4.2.6 1 1.2 6.2 1.5 11.5.4 7.6.1 10.7-1.2 13.9-.9 2.2-1.5 4.4-1.4 4.8.6 2-6 10.2-8.2 10.2-.4 0-1 .8-1.2 1.8-.3 1.1-2.2 2.3-4.9 3.1-2.4.7-4.9 1.8-5.6 2.3-.7.5-3.9 1.2-7.3 1.5l-6 .6V127c0 13.2-1.2 22.7-3.5 27-.7 1.4-1.6 4.1-2 6-.4 1.9-1.4 4.4-2.1 5.5-.8 1.1-1.4 2.6-1.4 3.5 0 .8-1.2 3.7-2.5 6.5-1.4 2.7-2.5 5.7-2.5 6.6 0 .9-.9 2.6-2 3.9-1.1 1.3-2 2.9-2 3.7 0 .7-.5 1.3-1.1 1.3-.5 0-.8.4-.5.9.3.5-.3 2-1.4 3.4-1.1 1.4-2 3-2 3.6 0 1.2-3.2 6-6.2 9.5-1 1.1-1.8 2.4-1.8 2.8 0 .5-1.6 2.5-3.5 4.6-7 7.3-13 14.8-13.5 16.7-.8 2.9-3.1 7.5-3.8 7.5-.5 0-1.6 1.7-2.5 3.7-2.6 5.6-5.8 8.8-11 10.8-2.9 1.1-4.9 2.5-5.3 3.9-1 3.2-6.9 8.3-10.5 9.1-2.6.6-3 1.1-2.6 3.1.2 1.2.1 2.2-.2 2.1-1.6-.4-8.1 1.5-8.1 2.3 0 .6-1.5 1-3.2 1-2.2 0-4.7 1.1-7.3 3.3-5.3 4.2-8.5 7.5-8.5 8.6 0 .5-1.5 1.3-3.2 1.7-3.6.7-7.8 3.2-7.8 4.4 0 1.2-5.6 6.6-7.5 7.3-.8.4-1.5 1.1-1.5 1.6 0 .6-1.5 1.3-3.4 1.7-1.9.3-3.7 1.2-4 2-.4 1-2.2 1.4-5.7 1.4-6.1 0-11.9 1.8-11.9 3.7 0 .8-1.4 1.3-4 1.3-3.3 0-4 .3-4 2 0 1.1.7 2 1.6 2 .8 0 1.3.4 1 .9-.3.4-2.8.6-5.6.3-4-.4-5-.1-5 1 0 .8-.9 2.3-2 3.3-2.1 1.9-3.7 2.3-10.2 2.4-2.7.1-3.8.5-3.8 1.6 0 1.4-3.4 2.1-8.5 1.6-1.1-.1-2.5.6-3.2 1.5-1 1.4-1.5 1.5-2.8.4-1.2-1-1.5-1-1.5.4 0 1.2-1 1.6-4 1.6-3.4 0-4-.3-4.1-2.3-.2-2.2-.2-2.2-.6 0-.5 2.4-3.2 3.9-3.8 2-3.4-10-3.8-17.6-.9-20.4.7-.7 1.4-1.8 1.6-2.5.3-.9 2.7-1.2 8.1-1 6.5.3 7.7.1 7.7-1.3 0-.8.7-1.8 1.5-2.1.8-.4 2.9-1.9 4.6-3.5 3.2-3 3.3-3.5 1.5-12.4-.2-1.1-.5-3-.5-4.2-.1-1.2-.8-2.8-1.6-3.7-.8-.8-1.5-2.1-1.5-2.9 0-.8-.7-1.8-1.6-2.1-1.1-.4-1.4-1.3-1.1-2.7.4-1.5-.4-3.1-2.9-5.7-2.2-2.3-3.6-4.9-4-7.4-.6-3.4-1-3.8-3.5-3.8-1.6 0-2.9-.4-2.9-.9s-1.4-1.2-3-1.6c-3.9-.8-3.8-2.4.1-3.2 2-.4 2.8-1 2.5-2-.4-.9.6-2 2.6-3.1 1.7-.9 3.9-2.5 5-3.5 1-.9 2.4-1.7 3.1-1.7 1.5 0 5-2.5 8.8-6.3 1.5-1.5 3.1-2.7 3.7-2.7.5 0 1.7-1.1 2.6-2.5.9-1.4 2.3-2.5 3.2-2.5.8 0 1.7-.7 2-1.5.4-.8 1-1.3 1.4-1 .4.3 1.3-.9 1.9-2.5.5-1.7 1.7-3 2.5-3 .9 0 1.6-.9 1.6-1.9 0-1.1.7-2.6 1.5-3.5.8-.8 1.5-1.8 1.5-2.1 0-.4 1.2-2.6 2.8-4.9 1.5-2.3 3.8-6.3 5.2-8.9 1.3-2.6 2.8-4.7 3.2-4.7.5 0 .8-4.5.8-10 0-8.5-.2-10-1.6-10-.9 0-1.8-.9-2.1-2-.3-1.1-.8-2-1.2-2-1.3.1-7.1 14.9-7.1 18.3 0 2.4-6.7 11.9-9.3 13.4-2.6 1.4-6.7 1.7-6.7.4 0-.4.9-2 2-3.4s2-3.9 2-5.5c0-1.7.4-3.4 1-3.7.6-.3 1-1.4 1-2.4s1.4-3.5 3-5.6c1.7-2.1 3-4.2 3-4.7s.8-2.6 1.9-4.7c2-4.2 2.2-10.1.4-12.3-.6-.7-1.5-2.7-1.9-4.3-.3-1.7-1.3-3.7-2.1-4.6-.7-.9-1.7-4-2.2-6.8-1-6.5-2.1-7.7-2.1-2.4 0 3-.8 5-3 7.8-1.6 2.1-3 4.8-3 6.1 0 1.6-1 2.8-2.9 3.9-2.4 1.2-3.1 2.4-3.7 6-.6 4.1-.9 4.5-3.4 4.5-2.3 0-2.7.4-2.3 2 .3 1.1 0 2-.6 2s-1.1-.8-1.1-1.8c0-1.4-.4-1.2-2 .8-1.3 1.6-1.8 3.4-1.5 4.8.4 1.7-.1 2.9-1.9 4.3-1.4 1.1-2.8 2.9-3.2 4.1-1 3.3-5 7.2-6.7 6.5-.8-.3-3.8 0-6.7.8l-5.1 1.3-3.6-3.5c-2.8-2.9-3.7-4.6-4.3-9.1-.7-5.2-.6-5.6 2.4-8.6 2.5-2.6 2.7-3.1 1.3-3.4-2.2-.4-2.1-1.1.5-3.9 3.1-3.4 3.8-2.9 3.8 2.7v5l8.8-.5c4.8-.2 8.8-.5 9-.5.1 0 .5 0 1-.1.4 0 1-.9 1.4-2 .7-1.7-.4-5.4-3.3-11.1-.5-1-.9-2.5-.9-3.3 0-1.1-1.1-1.5-3.7-1.6-2.1-.1-4.9-.4-6.2-.8-2.4-.6-2.4-.7-.5-2.6 1.9-1.8 1.9-1.8 2.2.3.2 1.6 1 2.2 2.8 2.2 2.1 0 2.4-.4 2.4-4 0-2.9-.4-4-1.5-4-2.3 0-1.8-1.6 1.5-4.3 2.5-2.2 3-3.3 3-7.1 0-2.4-.5-4.6-1.1-4.8-.8-.3-1-1.6-.5-4.1l.7-3.7h13.1l-.6 8.5c-.6 9.6.3 10.7 4.8 5.8 1.9-2 2.4-3.4 1.9-5.3-.3-1.4-1-2.8-1.6-3.1-1.8-1.2-.2-4.3 2.8-5.1 2.1-.6 4.1-.3 6.8.8 2 1 4 1.4 4.4 1.1.3-.4 1.2-.2 1.8.3 1.3 1.1 7.6 2.6 16 3.9 6.8 1.1 11.2 2.8 16.5 6.5 2.4 1.7 6.4 4.1 8.8 5.2 4.7 2.4 14.3 11.7 16.7 16.4.9 1.6 2 3 2.4 3 .5 0 1.5 1.6 2.1 3.5.7 2 2.3 4.3 3.6 5.2 2.3 1.5 2.6 1.5 4.1 0 1.4-1.4 1.5-2.2.5-5.5-1.8-6-1.6-9.2.7-9.2 4.9 0 6-8 2.4-17.3-1.4-3.7-3-6.7-3.5-6.7-.4 0-.8-.7-.8-1.5 0-2.4-2.2-5.7-7-10.5-2.5-2.5-5.2-5.4-6-6.6-.8-1.2-2.8-2.8-4.5-3.7-5.1-2.8-6.6-4.4-6.9-7.4-.6-5.3.8-5 16.8 4.2 2.6 1.5 6.5 4.4 8.5 6.4 4.9 4.9 12.5 13.9 12.9 15.4.2.7 1.1 2.8 2 4.7.8 1.9 1.5 4.3 1.4 5.2 0 1 .3 1.8.8 1.8s1.7 1.3 2.7 3c.9 1.6 2.1 3 2.5 3 .4 0 1.4-2.4 2.3-5.3 1.1-3.9 1.2-6.1.5-8.7-.5-1.9-1-4.8-1-6.4 0-1.5-.8-4.5-1.9-6.5-1-2-2.2-4.9-2.7-6.5-.5-1.6-2.2-3.7-3.9-4.6-2.5-1.4-3-2.3-3-5.4 0-2.6-.5-3.8-1.7-4.2-1-.3-1.8-.9-1.8-1.5 0-.5-1.9-2.1-4.2-3.5-2.4-1.5-5.8-4.2-7.7-6.1-1.8-1.9-3.6-3.2-3.8-2.9-.3.3-2.1-1.4-3.9-3.7-4.6-5.7-4.7-10.7-.4-14.4 3.3-2.7 3.7-4.8 1.5-7.7-1.8-2.4-2-7.5-.2-7.8 1.6-.1 2.7-.4 5.5-1.3 2.7-.9 2.9-4.1.2-4.8-3.2-.8-7.1-12.8-5.3-16 .5-.9 6.4-.2 11.8 1.3zm575.3 2.4c1.9.2 2.8 1 3 2.5.2 1.4-.2 2.1-1.2 2.1-.9 0-1.6-.5-1.6-1.1 0-.8-1.2-1-3.5-.6-3.2.5-3.5.4-3.5-1.9 0-2.1.4-2.4 2-1.9 1.1.4 3.2.8 4.8.9zM619.2 37c.4 0 .8-.7.8-1.6 0-.8.5-1.2 1.1-.9.5.4.9 1.7.8 2.8-.3 4.2.1 5.8 1.4 5.5.6-.1 2.3.4 3.7 1.2 1.4.8 4.5 1.7 7 2l4.5.5.3 4.7c.2 3.4.7 4.8 1.8 4.8.7 0 1.4.5 1.4 1 0 .6-.6 1-1.4.8-.7-.2-2.2.7-3.2 2-1.8 2.1-2 2.2-4.2.6-1.5-1-2.2-2.3-1.9-3.4.4-1.4-.6-2.2-4.6-3.7-4.5-1.6-5.3-2.3-6.4-5.8-2.3-7.1-2.5-7.5-4-7.5-1.1 0-1.4-.6-.9-2.3.3-1.2.6-2.9.7-3.7 0-.9.4-.7 1.1.7.6 1.3 1.5 2.3 2 2.3zm-2 12.7c.7.8.4 2-.9 3.7-2.6 3.6-3.3 3.2-3.3-1.7 0-4.6 2.2-8.4 2.9-5 .2 1 .8 2.3 1.3 3zM70.5 56.8c-.8.8-2.5-1-1.9-2 .4-.6.9-.5 1.5.3.4.7.6 1.5.4 1.7zm586.6 1.6c1 1.3 3 2.7 4.3 3 3 .7 4.1 4.1 4.5 13.4.1.7.5 1.1 1 .8.5-.3 1.2.5 1.5 1.9.6 2.3 1.1 2.5 6.1 2.5 4.2 0 5.5-.3 5.5-1.5 0-.8.7-1.5 1.5-1.5.9 0 2-1 2.6-2.3 2.4-5.2 17.6-7.7 24-4 2.7 1.6 2.9 2.2 2.9 7.5 0 4.2-.4 6-1.7 7-1 .7-2.3 2.2-2.8 3.2-1 1.7-2.2 1.9-9.5 1.7-4.7-.1-8.6-.6-8.8-1.2-.9-2.4-8.2 1-8.2 3.8 0 1.3-1.2 1.4-7.7.9-4.3-.4-8.6-.9-9.5-1.2-.9-.3-2.9-3.2-4.5-6.4-1.5-3.3-3.3-6-3.9-6-.6 0-1.8-.7-2.5-1.7-1.1-1.3-1.1-1.7-.1-2 1.5-.6 1.6-3.3.1-3.3-.7 0-.8-1.4-.4-4.3 1-6 2.7-12.7 3.2-12.7.3 0 1.4 1.1 2.4 2.4zm-507.9 2.8c-.9.9-1.5.9-2.4 0-.9-.9-.7-1.2 1.2-1.2s2.1.3 1.2 1.2zm-2.3 12.1c.6.8.8 1.6.5 2-1 .9-3.4-.4-3.4-1.9 0-1.8 1.4-1.8 2.9-.1zM632 81.5c0 .8-.2 1.5-.4 1.5s-.6-.7-1-1.5c-.3-.8-.1-1.5.4-1.5.6 0 1 .7 1 1.5zm-517.5 4.1c1.7.8 4.2 1.6 5.8 1.6 1.5.1 2.7.5 2.7 1 0 .4.5.7 1.2.5.6-.1 1.4.6 1.6 1.5.5 2.4-2.4 2.3-7.1-.2-2-1.1-5.2-2-6.9-2-3.4-.1-7.3-2.2-6.1-3.3 1.1-1.2 5.7-.7 8.8.9zm22.2 9.6c-.3.8-.6.5-.6-.6-.1-1.1.2-1.7.5-1.3.3.3.4 1.2.1 1.9zm-27.1 14.6c-3.1.4-4.1-.2-3.2-1.7.5-.7 1.6-.6 3.4.2l2.7 1.2-2.9.3zm13.7 2.7c1.5.3 2.7.9 2.7 1.4 0 1.5-3.2 2.2-4.6 1-.8-.6-1.4-.8-1.4-.3 0 1-2.9-2.8-3-3.9 0-.4.8-.3 1.8.2.9.6 2.9 1.2 4.5 1.6zm-63.3 14c0 .8-.4 1.5-1 1.5-.5 0-1-.7-1-1.5s.5-1.5 1-1.5c.6 0 1 .7 1 1.5zm89.9-.2c.6.8.8 1.7.5 2-.7.7-4.4-1.4-4.4-2.5 0-1.3 2.7-.9 3.9.5zm5.1 6.7c2.1 0 3 .7 4 3 1.4 3.3.6 8.4-1.3 7.7-1.3-.4-6.7-10.5-6.6-12.2 0-.6.3-.4.6.2.2.7 1.7 1.3 3.3 1.3zM36 196.5c0 3.1-.6 4.7-2.2 6.1-1.3 1-1.7 1.2-1 .4.6-.8 1.2-1.8 1.2-2.2 0-.5-.6-.8-1.2-.7-4.1.5-4.8-.1-4.8-4 0-4.2 1.2-5.1 5.8-4.3 1.9.4 2.2 1.1 2.2 4.7zm-10.5 4.4c-.6.5-2.5-1-2.5-2 0-.5.6-.4 1.4.3.8.7 1.2 1.5 1.1 1.7zm23 52.9c4 1.1 4 1.1 3.7 5.7-.2 2.5-.8 4.5-1.3 4.5s-.9.5-.9 1.2-1.2 2.5-2.7 4c-2.5 2.6-3.2 2.8-10.3 2.8-6.4 0-8-.3-9.5-2s-1.6-2.5-.5-7c1-4 1.8-5.4 3.7-6.1 1.4-.5 3.7-1.8 5.1-2.9 2.6-2.1 5.5-2.2 12.7-.2zm-12 51.9c.4 1 1.3 4.8 2 8.6l1.3 6.7-3.4 3.4c-2.4 2.4-4.5 3.5-7.6 3.8-6.1.7-10.4-.3-10-2.5.2-.9-.2-1.7-.9-1.7-.8 0-.8-.4.1-1.5 1-1.2.9-1.5-.6-1.6-1.6-.1-1.6-.2-.3-.6 1-.2 2-1.9 2.3-3.9.9-4.3 4.1-7.8 9.7-10.3 5.6-2.5 6.5-2.5 7.4-.4zm479 114.4c-.4 1.1-1 1.9-1.5 1.9-1.8 0-2.2-2.2-.9-5.2 1.2-3 1.3-3 2.1-.8.5 1.3.6 3.1.3 4.1zm26.4 55.9c.9 0 1.2.8.9 2.5-.3 1.4-.1 2.8.3 3.1 1.3.8 1.1 6.8-.3 8.2-1.4 1.4.6 4.2 3.2 4.2 2.7 0 3.6 2 3.9 8.5.3 7 4.9 16.5 8 16.5 1.4 0 2 1.1 2.4 5.1.4 2.7 1.6 7 2.8 9.4 1.3 2.6 1.9 5.3 1.6 6.7l-1.5 6c-.9 3.4-.8 3.8.8 3.8 1.1 0 2.2-.5 2.5-1 1.1-1.7 4.3-1.1 6.7 1.2 3.7 3.7 6.8 8.6 6.8 10.8 0 2.8 2.9 7 4.9 7 2 .1 5.2 2.7 7.4 6.2 1 1.6 3.2 3.5 5 4.3 4.4 2 13.7 10.1 16.7 14.4 3.6 5.4 6.1 7 9.4 6.4 1.8-.4 3.1-.1 3.7.8 1.4 2.3 1 6.1-.8 7.4-2.7 2-.6 3.5 4.2 3 2.6-.3 4.5-.1 4.5.5s1.8 1.7 4 2.6c2.2.9 4 2.2 4 2.9 0 .7 1 1.9 2.1 2.7 1.6 1 2.1 2.4 2.2 5.8 0 2.5.2 3.7.4 2.7.3-.9.6-1.7.9-1.7.2 0 2.7 2.3 5.5 5.1 4.6 4.6 5.3 5 7.5 4 1.3-.6 2.4-.7 2.4-.2 0 .5 1.4 1.2 3 1.6 1.7.4 3 1.2 3 1.9 0 2.2 4.2 3.7 7.7 2.7 3.1-.9 3.2-.8 3.8 2.9.7 4.2 4.6 8.6 6.8 7.7 2.1-.8 4.6-6.3 4-8.5-.3-1.4.2-2.1 1.9-2.5 5.1-1.4 5.8-1 5.8 3.5 0 2.4-.5 5-1 5.8-.6 1-.4 2 .7 3.2.9 1 1.3 1.8 1 1.8-.3 0-.1 1.4.5 3 .7 2.2.7 4.4-.2 8-1.5 6.4.3 10 5 10 3.5 0 4.3-1.5 5.4-10 .4-3 1.1-7.1 1.6-9 .9-3.3 1.3-3.5 4.9-3.6 3.9-.1 3.9-.1 4.6 4.3.6 4.3.8 4.4 3.5 3.8 1.6-.3 4.5-.2 6.4.3 4.3 1.2 5.3.3 5.8-5.3.2-2.8.8-4.1 2.1-4.3 1.4-.3 1.7.4 1.7 4.2 0 3.9.5 5 4.1 8.7 3.7 3.8 4 4.5 3.2 7.3-.9 3-5.5 6.5-6.1 4.6-.7-2-3-.9-5.6 2.4-3.1 4.1-3.2 5.8-.9 8.2 1 1 2.3 2.7 2.8 3.8.6 1.2 1.8 2 2.7 1.8.9-.1 1.8.7 2.1 1.7.3 1.1.2 2-.2 1.9-.3-.1-1.7.3-3.1.9-1.4.6-3.3 1.4-4.3 1.7-1.1.3-2.1 1.5-2.4 2.6-.3 1.1-.9 2-1.4 2-.5 0-.9 1.7-.9 3.9 0 2.3-.8 4.8-2 6.3-2.4 3.1-5.3 11.5-4.5 12.8.3.6 0 1.1-.7 1.2-.7 0 1.4.4 4.7.8 7.1.9 13.3 2.6 19.7 5.4 4.2 1.8 4.7 2.4 5.5 6.6.5 2.5.6 5.6.3 7-.4 1.4-.2 3.5.3 4.8.8 1.8.7 2.5-.9 3.7-1 .8-2.8 1.3-3.9 1-1.1-.3-3-.5-4.2-.5-2.7 0-3.1-1.9-.5-2.1 1.4-.1 1.4-.2.1-.6-.9-.2-2.2-1.6-2.9-3.1-2.4-5.2-2.6-5.6-4.3-6.6-1.2-.7-2-.8-2.5-.1-2 2.8-4.2 3.8-5.7 2.5-1-.9-3.3-1.1-7.2-.7-6.9.7-8.2 1.8-5.3 4.5 1.3 1.2 1.7 2.2 1.1 2.6-.6.4-1.3 2.9-1.7 5.7-.5 3.6-1.2 5.3-2.7 6.1-1.6.8-2.2.8-2.5-.1-.5-1.4-2.9-1.4-3.8 0-.3.6-.8 3-.9 5.3-.1 2.2-.3 4.4-.4 4.8-.2 1.3-5.5.8-7.5-.7-1.1-.8-2.8-1.5-3.8-1.5s-2.9-.7-4.2-1.5c-1.3-.9-5.6-1.8-9.7-2.1-5.1-.4-8.6-1.3-11.6-3-2.4-1.3-5.9-2.4-7.7-2.4-2 0-4.8-1.1-7.2-2.8-5.1-3.7-12.1-6.9-16.4-7.6-2-.3-5.2-1.5-7.3-2.6-2-1.1-4.6-2-5.7-2-1.1 0-4.8-1.3-8.2-2.9-7.1-3.2-12.1-5.1-15.8-5.8-1.4-.3-3.8-1.1-5.5-1.8-1.6-.8-3.3-1.4-3.8-1.4-1.4-.1-7.2-3.3-9.2-5.2-3.5-3.2-11.8-6.9-15.4-6.9-1.9 0-4.2-.6-5-1.3-.9-.8-3.8-2-6.6-2.7-2.7-.7-6.1-2.1-7.5-3-7.6-5-21.7-10.6-32.3-12.9-2.1-.5-4.5-1.8-5.2-2.8-.8-1.1-2.7-2.3-4.2-2.6-1.5-.4-4.3-1.7-6.2-2.9-6.2-4.2-7.6-4.8-10.7-4.8-2 0-3.9-.9-5.4-2.5-1.3-1.4-3-2.3-3.7-2.1-.7.3-1.3.2-1.3-.3s-2.1-1.2-4.7-1.6c-2.7-.3-10-3.1-16.3-6.2-7.1-3.4-13.5-5.8-16.9-6.3-8.7-1.1-12.4-7.4-7.8-13 1.4-1.6 2.9-4 3.2-5.2.4-1.3 1.3-3 2.1-3.8.7-.8 3.3-6.2 5.8-12 5-11.7 10-21.5 12.6-24.5.9-1.1 2.3-3.6 3-5.5.7-1.9 3-5.8 5.2-8.6 2.1-2.8 3.8-5.8 3.8-6.6 0-.8.8-2.6 1.8-3.9 1.1-1.3 3.6-6 5.8-10.4 2.1-4.4 4.8-8.9 6-10 1.2-1.1 2.7-4 3.4-6.5.6-2.5 1.7-5.2 2.4-6 .7-.8 1.7-3.2 2.3-5.2 1.2-4.2 5.2-10.9 10.1-16.9 1.7-2.3 3.2-4.7 3.2-5.5 0-.7.9-1.8 2-2.4 1.1-.6 2-1.6 2-2.2 0-.7 3.4-8 7.5-16.4 4.1-8.4 7.5-15.6 7.5-16.1 0-.4 1.2-2.1 2.6-3.8 1.4-1.6 3.5-4.5 4.6-6.5 3.5-5.7 5-7.2 7.3-6.6 1.1.3 2.6.6 3.4.6zM308.8 638.7c-1 .2-2.6.2-3.5 0-1-.3-.2-.5 1.7-.5s2.7.2 1.8.5zM280 643c0 .5-1.8 1-4 1s-4-.5-4-1c0-.6 1.8-1 4-1s4 .4 4 1zm42.8 3.8c.2.7-.3 1.2-1.2 1.2-.9 0-1.6-.7-1.6-1.6 0-1.7 2.2-1.4 2.8.4zm458.8 29.8c1.1 1.7 1.2 2.7.4 5-.6 1.6-1.1 6.9-1 11.9.3 16.5.1 21.3-1 22-.5.3-1 .1-1-.5s-.4-.8-1-.5c-.5.3-1 1.5-1 2.6 0 1.9-.1 1.9-1.6.5-1.2-1.3-1.4-3.2-1-10.8.4-5 .8-9.3 1-9.6.9-.8-2.9-4-6.6-5.5-3.5-1.5-3.7-1.8-3.2-4.9.8-3.8 1.3-4.6 4.6-6.2 1.6-.8 2.5-2.3 2.8-5.1.9-6.4 1.9-7.2 4.7-3.9 1.3 1.6 3 3.9 3.9 5zM725 750.5c0 .8-.4 1.5-1 1.5-.5 0-1-.7-1-1.5s.5-1.5 1-1.5c.6 0 1 .7 1 1.5zm8 7.3c5.7 1.5 6.6 2.1 7.5 4.7 1.5 4.4 2.4 5.5 4.6 5.5 1.2 0 1.7.4 1.4 1.1-.4.6-1.3.8-2.1.5-.7-.3-1.1 0-.8.8.8 2.1-3.9 6.3-7.7 7-3.6.6-7.8 4-6.6 5.2 1.2 1.2-5.7 6.4-8.5 6.4-5.2 0-9.5-9.8-7.4-16.9 1.1-3.8 3.1-7.2 2.4-4.1-.2 1.1.8 1.6 3.8 1.8l4.2.3.7-5.7c.6-5 1.4-8.5 1.9-8.4 0 .1 3 .9 6.6 1.8zm7.6 33.9c-1.1 1.1-1.9-.6-1.1-2.4.8-1.7.8-1.7 1.2 0 .3 1 .2 2.1-.1 2.4z"/><path d="M114.2 43.6c-.2 3.3-.6 4.3-2.4 4.9l-2.3.8 2.3.4c3.2.6 3.4.3 2.9-5.3-.3-4.8-.3-4.8-.5-.8zM167.6 31.7c-.3.4-.6 1.7-.6 3 0 2.4 1.4 3.1 2.5 1.2.4-.6 1.4-.8 2.2-.5 1.3.5 5.1-2 4.2-2.8-.8-.7-7.8-1.4-8.3-.9zM182.5 38c.3.5.8 1 1.1 1 .2 0 .4-.5.4-1 0-.6-.5-1-1.1-1-.5 0-.7.4-.4 1zM195 38.9c-1.5 2.8-1.3 3.2 2.4 7.4 2.6 3 3.8 3.7 5.1 3 1.4-.8 1.4-1.1-.4-2.7-1.6-1.4-1.8-2.3-1-4.3 1.7-4.6-3.8-7.6-6.1-3.4zM184 42c0 1.7.7 2 4 2s4-.3 4-2-.7-2-4-2-4 .3-4 2zM178.7 43.7c-1.3 1.3-.7 5.3.8 5.3.8 0 1.5-.8 1.5-1.8 0-2.2-1.4-4.4-2.3-3.5zM190.3 49.8c1 1 1.7 2.4 1.7 3 0 .7.5 1.2 1 1.2.6 0 1-.7 1-1.5s-.4-1.5-1-1.5c-.5 0-1-.7-1-1.5s-.7-1.5-1.7-1.5c-1.5 0-1.5.1 0 1.8zM187.4 76.5c-1.1 2.7.9 3.5 3.5 1.4 1.3-1 1.9-1.9 1.3-1.9-.6 0-1.7-.3-2.6-.6-1-.4-1.8 0-2.2 1.1zM144 215c0 .5-.6 1-1.4 1-.7 0-1.6.9-1.9 2.1-.3 1.1-1.5 2.3-2.6 2.6-1.2.3-2.1 1.2-2.1 1.9 0 .8-.4 1.4-1 1.4-.5 0-1.6 1.5-2.5 3.2-.8 1.8-3 5.3-4.8 7.8-2.7 3.6-4 4.5-6.6 4.6-2 .1-3.7.9-4.7 2.2-.8 1.2-2.1 1.9-2.9 1.6-1.1-.5-1.5.1-1.5 1.9 0 1.4-.5 2.7-1.1 2.9-.9.3-.9.9 0 2.5.6 1.2 1.1 3.5 1.1 5 0 1.6.6 3.5 1.3 4.1.7.8 1.4 5.2 1.7 11l.5 9.7 4-.3c2.2-.2 4.4-.8 5-1.3.5-.5 2.3-.9 4-.9 1.6 0 4.4-.9 6.1-1.9 1.8-1.1 5.3-2.3 7.9-2.6 4-.7 5-1.3 7.2-4.9 1.4-2.2 2.9-4.3 3.3-4.6.6-.4 3-6.6 3-7.6 0-.2-.9-.4-2-.4-1.9 0-1.8-.3.8-4 1.5-2.1 3.4-4 4.2-4 .8-.1-.3-.8-2.4-1.6-2.2-.8-4.2-1-4.5-.6-.3.5-2.7 1.1-5.2 1.4-4.6.5-4.7.4-6.9-3.3-1.9-3.6-1.9-4.4.2-4 .4 0 1-1.1 1.3-2.7 1.5-7.5 3.7-13.2 5.1-13.2 1.9 0 1.9-6.6 0-8.6-1.7-1.6-2.6-1.8-2.6-.4zm8 34c0 .5-.4 1-.9 1-.6 0-1.3-.5-1.6-1-.3-.6.1-1 .9-1 .9 0 1.6.4 1.6 1zM615.1 606.5c.1 1.8 1.8 5.1 1.8 3.6.1-.8.8-2.3 1.8-3.3 1.5-1.7 1.5-1.8-1-1.6-1.5.1-2.7.7-2.6 1.3zM612.1 614.6c0 1.1.3 1.4.6.6.3-.7.2-1.6-.1-1.9-.3-.4-.6.2-.5 1.3zM692.8 682.6c-1.3 1.3-.9 5.2.7 5.7 1.7.7 3.2-1.2 1.7-2.2-.5-.3-1.1-1.4-1.3-2.4-.2-1.1-.7-1.5-1.1-1.1zM598.1 707.9c-1.7 1.3-2.4 2.9-2.5 5.7-.1 3.8 0 3.9 3.2 3.9 2 0 3.9.7 4.6 1.7.7 1 2.4 1.8 3.6 1.8 1.3 0 4.8 1.4 7.9 3.1 3.1 1.8 6.3 3.3 7.1 3.4 5.9.8 8.1 1.9 8.6 4.4.3 1.4.8 3.4 1.1 4.4.6 2.1 6 4.7 9.8 4.7 1.4 0 2.8.7 3.1 1.5.4.9 1.9 1.5 3.8 1.5s4.1.9 5.8 2.5c1.5 1.4 3.6 2.5 4.7 2.5s2.3.4 2.6 1c.3.5 1.9 1 3.6 1 1.6 0 2.9.4 2.9.9s1.6 1.2 3.5 1.5c1.9.4 4.7 1.3 6.2 2.1 3.6 1.9 4 1.9 5.3-.5 1.1-2.1-.8-8.3-4.1-13.1-1-1.4-2.1-3.7-2.4-5.2-.4-1.5-1.1-2.7-1.6-2.7s-.6-.7-.3-1.5c.4-.8.1-1.6-.5-1.6-2.6-.3-3-.4-3.7-1.2-.4-.4-3.6-.7-7.1-.7-6.6 0-6.7.1-6.6 5.6 0 .7-1.7 1.7-3.8 2.4-4.2 1.4-5.3.8-7.7-4-3-6.1-6.2-10-8.3-10-.9 0-1.9-.7-2.3-1.5-.3-.9-1.8-1.5-3.8-1.5-3.1 0-13.1-5.1-21.9-11.2-3.9-2.6-8.1-3-10.8-.9zM692.5 716c-.4 1.9-1.2 3.8-1.8 4.1-.6.4.1 1.8 1.6 3.3 2.3 2.3 2.9 2.5 5.2 1.4 2.2-1 3.6-4.8 1.7-4.8-.4 0-1.3-1.4-1.9-3.1-.7-1.7-1.6-2.8-2.2-2.5-.5.3-1.1 0-1.4-.6-.2-.7-.7.3-1.2 2.2z"/><path d="M654.5 729c.3.5.8 1 1.1 1 .2 0 .4-.5.4-1 0-.6-.5-1-1.1-1-.5 0-.7.4-.4 1zM744 750c0 .5.5 1 1 1 .6 0 1-.5 1-1 0-.6-.4-1-1-1-.5 0-1 .4-1 1zM684.7 756.7c-.8.7 1.1 3.3 2.3 3.3.5 0 .6-.9.3-2-.5-2-1.5-2.5-2.6-1.3zM688.3 758.4c.3.7.1 1.8-.4 2.3-.6.6-.4 1.4.6 2.3.8.7 1.5 2.1 1.5 3.1 0 1.2 1 2.1 2.5 2.5 2.6.6 8.1-.3 7.2-1.2-.3-.3-.1-1.8.3-3.4 1.1-3.8-1-5.5-7.4-6.4-3.8-.5-4.7-.3-4.3.8zm5.7 8.6c0 .5-.4 1-1 1-.5 0-1-.5-1-1 0-.6.5-1 1-1 .6 0 1 .4 1 1zM586.6 1.6c-1 2.5-.7 3.3 1.4 4.4 1.8 1 2 .8 2-2.5 0-3.7-2.2-5-3.4-1.9zM594.3 1.5c-.7 2-.2 2.5 3.5 2.9 2.2.3 3.1 0 3.5-1.3.3-1.4 1.2-1.7 3.4-1.4 1.7.3 3.4 0 3.7-.6.5-.8-1.5-1.1-6.4-1.1-5.4 0-7.2.4-7.7 1.5zM644.2 3.2c-.9 3.5-.4 11.8.7 11.8.4 0 1.2-.5 1.9-1.2 1.6-1.6 1.6.4 0 2.1-1.1 1.1-1 1.3.5.7 1-.3 2.3-.6 2.7-.6 1.5 0 2.4-7 1.1-8.3-1.6-1.6-1.3-4.7.5-4.7 3.2 0 .6-2.5-2.9-2.8-3.3-.3-3.6-.1-4.5 3zM482 123c0 .7-.7 2.2-1.7 3.2-1.5 1.6-1.5 1.8 0 1.8 2.2 0 4.2-3.9 2.8-5.3-.8-.8-1.1-.7-1.1.3zM425.6 185.3c-6.4 4.8-8.4 7.8-4.6 6.8 3.4-.8 4.5-.5 4.8 1.6.2 1.5-.9 3.1-3.7 5.4-2.3 1.8-4.1 3.7-4.1 4.2 0 1.8-5.5 9.7-6.7 9.7-1.4 0-2.9 4.7-1.9 5.7.8.9 3.6-1.7 6.2-5.9 1.4-2.1 3.1-3.8 3.9-3.8.8 0 1.5-.7 1.5-1.5s1.2-1.7 2.8-2.1c1.5-.3 3.8-.9 5.2-1.3 1.4-.5 3.6-.4 4.8 0 3.1 1.2 4.2.4 4-2.6-.2-2.1-.7-2.4-3.2-2.2-1.6.1-3.1-.4-3.3-1.1-.3-.7.1-1 1-.7.7.3 2-.1 2.7-1 1.6-1.9 2.9-1.9 5 0 2.9 2.6 5.1-.1 5.7-7.2l.6-6.1-6.2.5c-5.7.5-6.1.5-6.1-1.6 0-1.1-.3-2.1-.7-2.1-.5 0-3.9 2.4-7.7 5.3zM391.1 222.1c-.6 1.8-1.7 4-2.5 4.8-.7.9-1.6 2.6-1.9 3.9-.4 1.8-.3 2.1.7 1.2 2.3-1.8 6.4-10.7 5.6-12-.5-.8-1.1-.1-1.9 2.1zM489.5 247.3c-.4 1-.5 2.1-.1 2.4 1 1 1.8-.4 1.3-2.4-.4-1.7-.4-1.7-1.2 0zM351.6 280.3c-6.5 6-6.8 7.6-1.8 12.9 2.3 2.5 2.4 2.8.7 2.8-1 0-1.6.3-1.3.6.4.3 3.1.3 6.1-.1 5.1-.7 5.5-.9 6.1-3.7.3-1.6 1.9-4.2 3.4-5.6 1.6-1.5 3.1-3.7 3.4-5 .5-1.9.2-2.2-2.5-2.2-3.4-.1-6.7-2-6.7-3.9 0-2-1.4-1.2-7.4 4.2zM198.5 583c-.3.5.1 1 1 1s1.3-.5 1-1c-.3-.6-.8-1-1-1-.2 0-.7.4-1 1zM194.1 590.2c-.6 1.7-1.1 4.3-1.1 5.9 0 4.3-1 6.2-2.6 4.8-1.1-.9-1.6-.6-2.4 1.6-.5 1.4-1 3.3-1 4.1 0 .8-.6 1.4-1.3 1.4-.7 0-1.8 2.2-2.4 5.2-.6 2.9-1.5 6.5-1.8 8-.6 2.2-.4 2.8.9 2.8 2.3 0 2 .8-1.4 3.7-3.9 3.2-3.8 4.5.3 4.1 2.5-.2 3.6-1.1 5.2-4 1.1-2.2 2.8-3.8 3.8-3.8.9 0 1.7-.7 1.7-1.5s.4-1.5 1-1.5c.5 0 1.3-1.5 1.8-3.3.4-1.8 1.7-3.6 3-4.2 1.2-.5 2.2-1.7 2.3-2.5 0-.8.1-5.1.2-9.5s.5-8.7.9-9.5c1-2-.2-3.6-3.4-4.3-2.3-.6-2.7-.3-3.7 2.5zM168.3 676c0 2.5.2 3.5.4 2.2.2-1.2.2-3.2 0-4.5-.2-1.2-.4-.2-.4 2.3zM176.1 703.7c0 5 .3 8.3.9 8.3 1.1 0 1.2-4.3 0-11.5-.7-4.7-.7-4.5-.9 3.2zM184 727c0 .5.5 1 1.1 1 .5 0 .7-.5.4-1-.3-.6-.8-1-1.1-1-.2 0-.4.4-.4 1z"/></svg>